HIERARCHY
ROOT hip
{
  OFFSET 0 0 0
  CHANNELS 6 Xposition Yposition Zposition Zrotation Yrotation Xrotation
  JOINT abdomen
  {
    OFFSET 0 20.6881 -0.73152
    CHANNELS 3 Zrotation Xrotation Yrotation
    JOINT chest
    {
      OFFSET 0 11.7043 -0.48768
      CHANNELS 3 Zrotation Xrotation Yrotation
      JOINT neck
      {
        OFFSET 0 22.1894 -2.19456
        CHANNELS 3 Zrotation Xrotation Yrotation
        JOINT head
        {
          OFFSET -0.24384 7.07133 1.2192
          CHANNELS 3 Zrotation Xrotation Yrotation
          JOINT leftEye
          {
            OFFSET 4.14528 8.04674 8.04672
            CHANNELS 3 Zrotation Xrotation Yrotation
            End Site
            {
              OFFSET 1 0 0
            }
          }
          JOINT rightEye
          {
            OFFSET -3.6576 8.04674 8.04672
            CHANNELS 3 Zrotation Xrotation Yrotation
            End Site
            {
              OFFSET 1 0 0
            }
          }
        }
      }
      JOINT rCollar
      {
        OFFSET -2.68224 19.2634 -4.8768
        CHANNELS 3 Zrotation Xrotation Yrotation
        JOINT rShldr
        {
          OFFSET -8.77824 -1.95073 1.46304
          CHANNELS 3 Zrotation Xrotation Yrotation
          JOINT rForeArm
          {
            OFFSET -28.1742 -1.7115 0.48768
            CHANNELS 3 Zrotation Xrotation Yrotation
            JOINT rHand
            {
              OFFSET -22.5879 0.773209 7.07136
              CHANNELS 3 Zrotation Xrotation Yrotation
              JOINT rThumb1
              {
                OFFSET -1.2192 -0.487915 3.41376
                CHANNELS 3 Zrotation Xrotation Yrotation
                JOINT rThumb2
                {
                  OFFSET -3.37035 -0.52449 3.41376
                  CHANNELS 3 Zrotation Xrotation Yrotation
                  End Site
                  {
                    OFFSET -1.78271 -1.18214 1.43049
                  }
                }
              }
              JOINT rIndex1
              {
                OFFSET -7.75947 0.938293 5.60832
                CHANNELS 3 Zrotation Xrotation Yrotation
                JOINT rIndex2
                {
                  OFFSET -2.54057 -0.884171 1.56538
                  CHANNELS 3 Zrotation Xrotation Yrotation
                  End Site
                  {
                    OFFSET -1.62519 -0.234802 1.16502
                  }
                }
              }
              JOINT rMid1
              {
                OFFSET -8.24714 1.18213 3.41376
                CHANNELS 3 Zrotation Xrotation Yrotation
                JOINT rMid2
                {
                  OFFSET -3.10165 -0.590103 1.0647
                  CHANNELS 3 Zrotation Xrotation Yrotation
                  End Site
                  {
                    OFFSET -2.48547 -0.328903 0.83742
                  }
                }
              }
              JOINT rRing1
              {
                OFFSET -8.82822 0.546677 1.51678
                CHANNELS 3 Zrotation Xrotation Yrotation
                JOINT rRing2
                {
                  OFFSET -2.60934 -0.819778 -0.0198488
                  CHANNELS 3 Zrotation Xrotation Yrotation
                  End Site
                  {
                    OFFSET -2.33842 -0.294052 0.168128
                  }
                }
              }
              JOINT rPinky1
              {
                OFFSET -8.27202 -0.0477905 -0.4584
                CHANNELS 3 Zrotation Xrotation Yrotation
                JOINT rPinky2
                {
                  OFFSET -1.82734 -0.647385 -0.700984
                  CHANNELS 3 Zrotation Xrotation Yrotation
                  End Site
                  {
                    OFFSET -1.69225 -0.51767 -0.607171
                  }
                }
              }
            }
          }
        }
      }
      JOINT lCollar
      {
        OFFSET 2.68224 19.2634 -4.8768
        CHANNELS 3 Zrotation Xrotation Yrotation
        JOINT lShldr
        {
          OFFSET 8.77824 -1.95073 1.46304
          CHANNELS 3 Zrotation Xrotation Yrotation
          JOINT lForeArm
          {
            OFFSET 28.1742 -1.7115 0.48768
            CHANNELS 3 Zrotation Xrotation Yrotation
            JOINT lHand
            {
              OFFSET 22.5879 0.773209 7.07136
              CHANNELS 3 Zrotation Xrotation Yrotation
              JOINT lThumb1
              {
                OFFSET 1.2192 -0.487915 3.41376
                CHANNELS 3 Zrotation Xrotation Yrotation
                JOINT lThumb2
                {
                  OFFSET 3.37035 -0.52449 3.41376
                  CHANNELS 3 Zrotation Xrotation Yrotation
                  End Site
                  {
                    OFFSET 1.78271 -1.18214 1.43049
                  }
                }
              }
              JOINT lIndex1
              {
                OFFSET 7.75947 0.938293 5.60832
                CHANNELS 3 Zrotation Xrotation Yrotation
                JOINT lIndex2
                {
                  OFFSET 2.54057 -0.884171 1.56538
                  CHANNELS 3 Zrotation Xrotation Yrotation
                  End Site
                  {
                    OFFSET 1.62519 -0.234802 1.16502
                  }
                }
              }
              JOINT lMid1
              {
                OFFSET 8.24714 1.18213 3.41376
                CHANNELS 3 Zrotation Xrotation Yrotation
                JOINT lMid2
                {
                  OFFSET 3.10165 -0.590103 1.0647
                  CHANNELS 3 Zrotation Xrotation Yrotation
                  End Site
                  {
                    OFFSET 2.48547 -0.328903 0.83742
                  }
                }
              }
              JOINT lRing1
              {
                OFFSET 8.82822 0.546677 1.51678
                CHANNELS 3 Zrotation Xrotation Yrotation
                JOINT lRing2
                {
                  OFFSET 2.60934 -0.819778 -0.0198488
                  CHANNELS 3 Zrotation Xrotation Yrotation
                  End Site
                  {
                    OFFSET 2.33842 -0.294052 0.168128
                  }
                }
              }
              JOINT lPinky1
              {
                OFFSET 8.27202 -0.0477905 -0.4584
                CHANNELS 3 Zrotation Xrotation Yrotation
                JOINT lPinky2
                {
                  OFFSET 1.82734 -0.647385 -0.700984
                  CHANNELS 3 Zrotation Xrotation Yrotation
                  End Site
                  {
                    OFFSET 1.69225 -0.51767 -0.607171
                  }
                }
              }
            }
          }
        }
      }
    }
  }
  JOINT rButtock
  {
    OFFSET -8.77824 4.35084 1.2192
    CHANNELS 3 Zrotation Xrotation Yrotation
    JOINT rThigh
    {
      OFFSET 0 -1.70687 -2.19456
      CHANNELS 3 Zrotation Xrotation Yrotation
      JOINT rShin
      {
        OFFSET 0 -36.8199 0.73152
        CHANNELS 3 Zrotation Xrotation Yrotation
        JOINT rFoot
        {
          OFFSET 0.73152 -45.1104 -5.12064
          CHANNELS 3 Zrotation Xrotation Yrotation
          End Site
          {
            OFFSET -1.1221 -3.69964 12.103
          }
        }
      }
    }
  }
  JOINT lButtock
  {
    OFFSET 8.77824 4.35084 1.2192
    CHANNELS 3 Zrotation Xrotation Yrotation
    JOINT lThigh
    {
      OFFSET 0 -1.70687 -2.19456
      CHANNELS 3 Zrotation Xrotation Yrotation
      JOINT lShin
      {
        OFFSET 0 -36.8199 0.73152
        CHANNELS 3 Zrotation Xrotation Yrotation
        JOINT lFoot
        {
          OFFSET -0.73152 -45.1104 -5.12064
          CHANNELS 3 Zrotation Xrotation Yrotation
          End Site
          {
            OFFSET 1.1221 -3.69964 12.103
          }
        }
      }
    }
  }
}
MOTION
Frames:	4
Frame Time:	0.00833333
25.507502 72.5077 39.100304 -178.936 -0.52089995 -176.163 -2.92978 4.49926 2.8153799 2.85612 -8.645379 0.902409 -5.5336905 10.462901 -4.0600204 7.6000295 -17.0385 -6.75632 0.0 0.0 0.0 0.0 0.0 0.0 -4.76725e-14 -8.91108e-14 -2.01269e-15 -4.58388 -12.5737 44.612797 -27.886795 -40.971996 85.68299 -1.0763401 28.086098 4.30113 -6.40802e-10 4.43005e-10 6.15071e-10 -1.09667e-09 7.73598e-10 1.07704e-09 -6.4079697e-10 4.43005e-10 6.15059e-10 7.730911 5.47488 0.41731405 -6.40801e-10 4.4300302e-10 6.15076e-10 2.90554 0.965183 0.102902 -6.4079303e-10 4.43004e-10 6.15071e-10 10.2786 0.73180103 0.025912303 -6.4080596e-10 4.43007e-10 6.15075e-10 2.2216702 -0.733487 -0.20892 -4.7654097e-14 -8.91117e-14 -2.26117e-15 -3.6855102 -11.3212 -71.1964 28.273298 -38.5934 -81.4363 0.5566539 20.7201 -3.0472002 7.86235e-10 -2.11839e-10 -1.75617e-10 1.35446e-09 -3.66992e-10 -3.1756098e-10 7.86234e-10 -2.1183501e-10 -1.75597e-10 -7.730911 5.47488 -0.41731405 7.86237e-10 -2.11836e-10 -1.7561601e-10 -2.90554 0.965183 -0.102902 7.8622997e-10 -2.1183699e-10 -1.75617e-10 -10.2786 0.73180103 -0.025912303 7.8623896e-10 -2.11836e-10 -1.75623e-10 -2.2216702 -0.733487 0.20892 -2.03217e-16 8e-44 -3.88251e-19 4.18296 -40.578304 -2.7274902 -1.78727 68.899605 2.5878403 -6.7211103 -24.5796 -11.7758 2.03217e-16 8e-44 3.88251e-19 -12.499302 -39.504303 -10.432699 1.5359893 66.985 -2.3885999 12.072901 -23.1395 22.017002
25.381802 72.5661 38.9578 -179.401 -0.70849997 -176.047 -4.0182796 4.7048798 2.8032796 3.0666802 -8.89171 0.914067 -5.4849105 10.508599 -4.1490097 7.65515 -17.382002 -6.88887 0.0 0.0 0.0 0.0 0.0 0.0 -3.52012e-17 -1.27222e-13 -2.1319699e-14 -5.1677604 -13.1987 44.227703 -27.957903 -40.630695 85.0595 -1.10166 28.381401 4.35474 -7.6573103e-10 3.09712e-10 4.69281e-10 -1.3141299e-09 5.44457e-10 8.27673e-10 -7.65727e-10 3.09713e-10 4.69265e-10 7.730911 5.47488 0.41731405 -7.6573003e-10 3.0970998e-10 4.69281e-10 2.90554 0.965183 0.102902 -7.65725e-10 3.09711e-10 4.6928e-10 10.2786 0.73180103 0.025912303 -7.6573803e-10 3.09714e-10 4.69285e-10 2.2216702 -0.733487 -0.20892 3.52004e-17 -1.27222e-13 -2.16178e-14 -3.59842 -11.915999 -71.3103 28.307695 -38.265396 -80.8661 0.52060515 20.0638 -2.94229 8.57095e-10 -1.5529701e-10 -4.09875e-10 1.47424e-09 -2.6903998e-10 -7.2240597e-10 8.5709695e-10 -1.5529701e-10 -4.0985598e-10 -7.730911 5.47488 -0.41731405 8.57095e-10 -1.55296e-10 -4.0987802e-10 -2.90554 0.965183 -0.102902 8.57092e-10 -1.5529701e-10 -4.09877e-10 -10.2786 0.73180103 -0.025912303 8.5709695e-10 -1.55296e-10 -4.09881e-10 -2.2216702 -0.733487 0.20892 -2.03217e-16 8e-44 -3.88251e-19 3.3755498 -42.3182 -2.75261 -2.1017902 71.0138 2.8737104 -5.68166 -22.285501 -10.512199 2.03217e-16 8e-44 3.88251e-19 -12.8207 -39.265102 -10.0709 1.4968201 66.5819 -2.3344905 11.161899 -23.992397 20.029099
25.328602 72.618095 38.8021 -179.634 -0.63089997 -176.157 -4.8545194 5.3073297 3.0219495 3.0995798 -9.188939 0.9739319 -5.44446 10.5425 -4.1939197 7.716169 -17.860098 -6.912409 0.0 0.0 0.0 0.0 0.0 0.0 2.0663401e-14 -4.2825698e-14 -1.6073599e-14 -5.8118906 -13.818602 43.857098 -28.0323 -40.2392 84.3527 -1.14111 28.8334 4.4373198 -8.3657296e-11 -1.69305e-10 -1.3505401e-10 -1.4748999e-10 -2.90296e-10 -2.3198102e-10 -8.36536e-11 -1.69308e-10 -1.3507799e-10 7.730911 5.47488 0.41731405 -8.3656096e-11 -1.69307e-10 -1.35059e-10 2.90554 0.965183 0.102902 -8.36499e-11 -1.69307e-10 -1.35063e-10 10.2786 0.73180103 0.025912303 -8.3663396e-11 -1.6930199e-10 -1.35065e-10 2.2216702 -0.733487 -0.20892 2.06727e-14 -4.2825298e-14 -1.63283e-14 -3.6056297 -12.506398 -71.392 28.3378 -37.9339 -80.2952 0.537902 20.379 -2.99262 3.53186e-11 -1.54089e-10 -4.79689e-12 6.1580505e-11 -2.6784e-10 -8.47483e-12 3.53223e-11 -1.5408701e-10 -4.77997e-12 -7.730911 5.47488 -0.41731405 3.5320198e-11 -1.54086e-10 -4.79786e-12 -2.90554 0.965183 -0.102902 3.5315e-11 -1.5408701e-10 -4.79773e-12 -10.2786 0.73180103 -0.025912303 3.5322502e-11 -1.54086e-10 -4.8050197e-12 -2.2216702 -0.733487 0.20892 -2.03217e-16 8e-44 -3.88251e-19 2.58916 -44.8608 -2.9211502 -2.7659698 74.291 3.4924998 -4.06024 -18.118198 -8.40671 2.03217e-16 8e-44 3.88251e-19 -12.7178 -38.831497 -9.30794 1.45197 66.1529 -2.2856297 10.433 -24.6005 18.488499
25.263199 72.7457 38.5737 -179.916 -0.2955 -176.447 -5.75369 6.1467204 3.3248003 3.1124299 -9.482941 1.05143 -5.3726597 10.5828 -4.1926403 7.7362103 -18.2978 -6.86138 0.0 0.0 0.0 0.0 0.0 0.0 2.5426799e-14 4.90002e-14 -3.8762997e-15 -6.5112815 -14.369102 43.568703 -28.108898 -39.796204 83.557304 -1.1863402 29.336098 4.53018 4.96564e-10 -4.8562e-10 -5.57379e-10 8.4651697e-10 -8.43051e-10 -9.74508e-10 4.9656795e-10 -4.8562604e-10 -5.57408e-10 7.730911 5.47488 0.41731405 4.96565e-10 -4.85622e-10 -5.5738897e-10 2.90554 0.965183 0.102902 4.96574e-10 -4.85621e-10 -5.57394e-10 10.2786 0.73180103 0.025912303 4.9656e-10 -4.8561805e-10 -5.57402e-10 2.2216702 -0.733487 -0.20892 2.53644e-14 4.9e-14 -4.07509e-15 -3.6286302 -13.029799 -71.3856 28.366299 -37.5751 -79.676704 0.56825507 20.9126 -3.0784202 -6.34507e-10 -1.58121e-10 3.73582e-10 -1.0895399e-09 -2.7535002e-10 6.56164e-10 -6.34504e-10 -1.58119e-10 3.73597e-10 -7.730911 5.47488 -0.41731405 -6.34504e-10 -1.5811799e-10 3.73585e-10 -2.90554 0.965183 -0.102902 -6.34512e-10 -1.5811799e-10 3.73583e-10 -10.2786 0.73180103 -0.025912303 -6.3450095e-10 -1.5811799e-10 3.73572e-10 -2.2216702 -0.733487 0.20892 -2.03217e-16 8e-44 -3.88251e-19 1.6808102 -47.940903 -3.1613302 -4.057841 78.2943 4.74999 -2.95407 -13.379701 -7.03633 2.03217e-16 8e-44 3.88251e-19 -12.5357 -38.059204 -8.349791 1.3916696 65.5931 -2.2390296 9.838948 -25.084095 17.243399
